<svg id="visual" viewBox="0 0 960 300" width="960" height="300" xmlns="http://www.w3.org/2000/svg"
    xmlns:xlink="http://www.w3.org/1999/xlink" version="1.1">
    <rect x="0" y="0" width="960" height="300" fill="#001220"></rect>
    <path
        d="M0 187L22.8 187.3C45.7 187.7 91.3 188.3 137 191.3C182.7 194.3 228.3 199.7 274 201.5C319.7 203.3 365.3 201.7 411.2 192.3C457 183 503 166 548.8 158.3C594.7 150.7 640.3 152.3 686 158.7C731.7 165 777.3 176 823 179.3C868.7 182.7 914.3 178.3 937.2 176.2L960 174L960 301L937.2 301C914.3 301 868.7 301 823 301C777.3 301 731.7 301 686 301C640.3 301 594.7 301 548.8 301C503 301 457 301 411.2 301C365.3 301 319.7 301 274 301C228.3 301 182.7 301 137 301C91.3 301 45.7 301 22.8 301L0 301Z"
        fill="#fa7268"></path>
    <path
        d="M0 179L22.8 181C45.7 183 91.3 187 137 191.8C182.7 196.7 228.3 202.3 274 205.7C319.7 209 365.3 210 411.2 213C457 216 503 221 548.8 222C594.7 223 640.3 220 686 215.8C731.7 211.7 777.3 206.3 823 207.2C868.7 208 914.3 215 937.2 218.5L960 222L960 301L937.2 301C914.3 301 868.7 301 823 301C777.3 301 731.7 301 686 301C640.3 301 594.7 301 548.8 301C503 301 457 301 411.2 301C365.3 301 319.7 301 274 301C228.3 301 182.7 301 137 301C91.3 301 45.7 301 22.8 301L0 301Z"
        fill="#ef5f67"></path>
    <path
        d="M0 243L22.8 239.8C45.7 236.7 91.3 230.3 137 226C182.7 221.7 228.3 219.3 274 216.5C319.7 213.7 365.3 210.3 411.2 211C457 211.7 503 216.3 548.8 216.5C594.7 216.7 640.3 212.3 686 215.8C731.7 219.3 777.3 230.7 823 234.8C868.7 239 914.3 236 937.2 234.5L960 233L960 301L937.2 301C914.3 301 868.7 301 823 301C777.3 301 731.7 301 686 301C640.3 301 594.7 301 548.8 301C503 301 457 301 411.2 301C365.3 301 319.7 301 274 301C228.3 301 182.7 301 137 301C91.3 301 45.7 301 22.8 301L0 301Z"
        fill="#e34c67"></path>
    <path
        d="M0 244L22.8 246.5C45.7 249 91.3 254 137 255.2C182.7 256.3 228.3 253.7 274 252.3C319.7 251 365.3 251 411.2 252.8C457 254.7 503 258.3 548.8 256.5C594.7 254.7 640.3 247.3 686 245.8C731.7 244.3 777.3 248.7 823 246.8C868.7 245 914.3 237 937.2 233L960 229L960 301L937.2 301C914.3 301 868.7 301 823 301C777.3 301 731.7 301 686 301C640.3 301 594.7 301 548.8 301C503 301 457 301 411.2 301C365.3 301 319.7 301 274 301C228.3 301 182.7 301 137 301C91.3 301 45.7 301 22.8 301L0 301Z"
        fill="#d53867"></path>
    <path
        d="M0 266L22.8 265C45.7 264 91.3 262 137 265C182.7 268 228.3 276 274 277.8C319.7 279.7 365.3 275.3 411.2 273C457 270.7 503 270.3 548.8 268.2C594.7 266 640.3 262 686 260.5C731.7 259 777.3 260 823 262.2C868.7 264.3 914.3 267.7 937.2 269.3L960 271L960 301L937.2 301C914.3 301 868.7 301 823 301C777.3 301 731.7 301 686 301C640.3 301 594.7 301 548.8 301C503 301 457 301 411.2 301C365.3 301 319.7 301 274 301C228.3 301 182.7 301 137 301C91.3 301 45.7 301 22.8 301L0 301Z"
        fill="#c62368"></path>
</svg>